<svg xmlns="http://www.w3.org/2000/svg" width="64" height="64"><path d="M41.309 15.171c.152.006.304.022.45.056.075-.242.193-.865.193-2.407 0-1.519-.642-2.339-.904-2.339-.061 0-.145.049-.234.14l-.001.002c-.019.009-.027.027-.036.046-.004.003-.005.008-.008.011.351.71.54 1.48.54 2.272v2.219z"/><path fill="#F4F4E4" d="M21.546 18.898c0 .965.523 1.786 1.145 1.86v-2.81l-.583-.603c-.336.34-.562.915-.562 1.553z"/><path d="M22.047 12.819c0 1.542.117 2.164.194 2.407.147-.033.298-.05.45-.056v-2.22c0-.8.195-1.566.544-2.272-.109-.127-.212-.198-.284-.198-.261 0-.904.821-.904 2.339z"/><path fill="#F4F4E4" d="M41.309 17.773v2.98c.61-.084 1.145-.894 1.145-1.855 0-.695-.271-1.309-.656-1.63l-.489.505zm-2.92 9.321c.944-1.445 1.11-3.333 1.11-4.891v-2.558l-.941.974-.169 6.475zm-5.991-15.031c-3.616 0-5.922-.607-7.208-1.104a3.257 3.257 0 0 0-.689 1.992v4.224l2.175 2.249c.826-.199 2.585-.524 5.324-.524 2.555 0 4.276.289 5.183.494l2.316-2.396V12.95c0-.508-.125-1.007-.361-1.469-2.415.385-4.686.582-6.74.582zm-2.736 5.57a.892.892 0 0 1-.404.099.902.902 0 0 1-.811-.518c-.004 0-.144-.185-.547-.185-.395 0-.562.221-.591.266-.277.413-.83.542-1.241.272a.936.936 0 0 1-.306-1.243 2.454 2.454 0 0 1 2.139-1.166c1.245 0 1.947.767 2.167 1.219a.953.953 0 0 1-.406 1.256zm8.199 0a.891.891 0 0 1-.403.099.902.902 0 0 1-.811-.518c-.005 0-.145-.185-.548-.185-.394 0-.562.221-.592.266-.277.413-.832.541-1.24.272a.935.935 0 0 1-.307-1.243 2.454 2.454 0 0 1 2.139-1.166c1.245 0 1.947.767 2.167 1.219a.951.951 0 0 1-.405 1.256z"/><path fill="#6CADEF" d="m27.321 21.192.147 7.543c.314.194.657.35 1.03.456h6.646a5.774 5.774 0 0 0 1.392-.465l.195-7.521c-.816-.177-2.406-.435-4.73-.435-2.314.001-3.876.251-4.68.422z"/><path fill="#F4F4E4" d="m25.504 20.857-1.003-1.037v2.383c0 1.31.329 3.051 1.117 4.489l-.114-5.835z"/><path fill="#2E98EF" d="M46.06 32.841c-.334-.123-1.683-.591-4.144-1.021l-9.011 7.718v19.591h9.822V41.805c0-.517.405-.936.905-.936s.904.419.904.936v17.314h.004c3.583-.074 4.65-.748 4.65-2.797V40.418c0-3.602-1.022-6.081-3.13-7.577zm-6.305 9.899h-4.18c-.499 0-.904-.418-.904-.936 0-.517.405-.936.904-.936h4.18c.5 0 .904.419.904.936 0 .518-.404.936-.904.936z"/><path d="M24.943 8.778c.009.01 2.099 1.413 7.455 1.413 2.062 0 4.343-.207 6.813-.618h.01a.216.216 0 0 1 .044-.01c.021-.008.04-.024.061-.031.076-.096.155-.186.239-.268.009-.01.021-.018.03-.026.297-.508.647-1.53.458-2.415-.109-.478-.39-1.113-1.674-1.113-.263 0-.552.027-.869.084-2.587.449-5.021.674-7.229.674-1.892 0-3.438-.168-4.669-.394a15.429 15.429 0 0 1-2.787-.785c-.063 1 .208 2.479 2 3.424a.478.478 0 0 1 .118.065z"/><path fill="#F4F4E4" d="M32 31.063c-2.985 0-5.483.168-7.491.412L32 37.883l7.491-6.408c-2.017-.245-4.506-.412-7.491-.412z"/><path fill="#2E98EF" d="M17.94 32.83c-2.108 1.507-3.13 3.986-3.13 7.588v15.904c0 2.049 1.068 2.723 4.651 2.797h.002V41.805c0-.517.405-.936.905-.936s.905.419.905.936v17.324h9.823V39.538l-9.011-7.718c-2.462.421-3.81.889-4.145 1.01z"/><path d="M46.974 31.222a.72.72 0 0 0-.163-.094c-.099-.037-1.267-.515-3.646-.982a48.591 48.591 0 0 0-1.755-.308 55.643 55.643 0 0 0-2.71-.34c1.645-1.42 2.513-3.713 2.587-6.864 1.647-.051 2.977-1.703 2.977-3.735 0-1.061-.365-2.014-.945-2.694.317-.642.444-1.669.444-3.385 0-2.038-.846-3.639-2.047-4.078l.003-.01c.153-.58.226-1.198.181-1.75-.181-2.319-1.955-3.508-4.688-3.04-2.488.44-4.822.655-6.93.655-5.375 0-7.6-1.432-7.609-1.441a.911.911 0 0 0-.787-.112.92.92 0 0 0-.57.571c-.416 1.169-.597 3.405.778 5.192l.015.016c-1.105.529-1.87 2.063-1.87 3.997 0 1.717.127 2.743.445 3.385-.58.681-.945 1.634-.945 2.694 0 2.028 1.324 3.677 2.966 3.733.087 1.949.772 4.959 2.729 6.859h-.01c-1.05.103-1.991.224-2.832.347-.642.102-1.23.205-1.755.308-2.38.468-3.546.945-3.646.982a.705.705 0 0 0-.163.094C14.357 33.056 13 36.152 13 40.418v15.904C13 61 17.334 61 20.202 61h23.596C46.666 61 51 61 51 56.322V40.418c0-4.266-1.356-7.362-4.026-9.196zm-7.475-9.019c0 1.558-.166 3.445-1.11 4.891l.169-6.475.941-.974v2.558zm0-5.204-2.316 2.396c-.907-.206-2.628-.495-5.183-.495-2.739 0-4.498.324-5.324.523l-2.175-2.249V12.95c0-.72.241-1.406.689-1.992 1.286.496 3.591 1.104 7.208 1.104 2.054 0 4.325-.196 6.74-.58.236.462.361.961.361 1.469v4.048zm-2.769 4.207-.195 7.521a5.788 5.788 0 0 1-1.392.465h-6.646a4.072 4.072 0 0 1-1.03-.456l-.147-7.543c.804-.172 2.366-.421 4.679-.421 2.325-.001 3.915.257 4.731.434zm4.579-.452v-2.98l.488-.505c.385.321.656.935.656 1.63 0 .961-.534 1.771-1.144 1.855zm-.533-10.086c.009-.019.018-.037.036-.046l.001-.002c.09-.091.174-.14.234-.14.263 0 .904.82.904 2.339 0 1.542-.118 2.165-.193 2.407a2.495 2.495 0 0 0-.45-.056v-2.22c0-.792-.189-1.563-.54-2.272.003-.002.004-.007.008-.01zM22.691 20.759c-.622-.074-1.145-.896-1.145-1.86 0-.639.226-1.214.562-1.552l.583.603v2.809zm0-7.808v2.22a2.419 2.419 0 0 0-.45.056c-.077-.243-.194-.865-.194-2.407 0-1.519.643-2.339.905-2.339.071 0 .174.071.284.198a5.104 5.104 0 0 0-.545 2.272zm.135-7.662c.642.252 1.557.552 2.787.785 1.23.226 2.777.394 4.669.394 2.208 0 4.642-.225 7.229-.674.317-.057.606-.084.869-.084 1.284 0 1.564.636 1.674 1.113.189.885-.161 1.907-.458 2.415l-.03.026a2.814 2.814 0 0 0-.239.268c-.021.007-.04.023-.061.031a.216.216 0 0 0-.044.01h-.01c-2.47.411-4.751.618-6.813.618-5.356 0-7.446-1.403-7.455-1.413a.517.517 0 0 0-.118-.065c-1.792-.945-2.064-2.424-2-3.424zm1.675 16.914V19.82l1.003 1.037.113 5.835c-.787-1.438-1.116-3.179-1.116-4.489zm6.594 36.926h-9.823V41.805c0-.517-.405-.936-.905-.936s-.905.419-.905.936v17.314h-.002c-3.583-.074-4.651-.748-4.651-2.797V40.418c0-3.602 1.022-6.081 3.13-7.588.335-.121 1.683-.589 4.144-1.01l9.011 7.718v19.591zm-6.586-27.654c2.008-.244 4.506-.412 7.491-.412s5.474.168 7.491.412L32 37.883l-7.491-6.408zM49.19 56.322c0 2.049-1.067 2.723-4.65 2.797h-.004V41.805c0-.517-.404-.936-.904-.936s-.905.419-.905.936v17.324h-9.822V39.538l9.011-7.718c2.461.43 3.81.897 4.144 1.021 2.108 1.496 3.131 3.976 3.131 7.577v15.904z"/><path d="M39.755 40.869h-4.18c-.499 0-.904.419-.904.936 0 .518.405.936.904.936h4.18c.5 0 .904-.418.904-.936 0-.517-.404-.936-.904-.936zM27.9 15.158a2.457 2.457 0 0 0-2.139 1.166.936.936 0 0 0 .306 1.243c.411.27.964.141 1.241-.272.029-.045.197-.266.591-.266.403 0 .543.185.547.185a.904.904 0 0 0 .811.518.88.88 0 0 0 .404-.099.952.952 0 0 0 .405-1.256c-.218-.452-.92-1.219-2.166-1.219zm8.2 0a2.457 2.457 0 0 0-2.139 1.166.935.935 0 0 0 .307 1.243c.408.269.963.141 1.24-.272.03-.045.198-.266.592-.266.403 0 .543.185.548.185a.903.903 0 0 0 .811.518.875.875 0 0 0 .403-.099.952.952 0 0 0 .405-1.256c-.22-.452-.922-1.219-2.167-1.219z"/></svg>